<?xml version="1.0" standalone="no"?><!DOCTYPE svg PUBLIC "-//W3C//DTD SVG 1.1//EN" "http://www.w3.org/Graphics/SVG/1.1/DTD/svg11.dtd"><svg t="1545989838479" class="icon" style="" viewBox="0 0 1181 1024" version="1.1" xmlns="http://www.w3.org/2000/svg" p-id="9178" xmlns:xlink="http://www.w3.org/1999/xlink" width="230.6640625" height="200"><defs><style type="text/css"></style></defs><path d="M922.702769 596.243692l153.639385-154.54523c5.907692-5.947077 16.147692-2.363077 17.053538 6.06523 2.008615 18.628923 3.072 37.572923 3.072 56.753231 0 286.916923-231.266462 519.483077-516.52923 519.483077-126.818462 0-242.924308-46.08-332.8-122.407385a10.082462 10.082462 0 0 1-0.551385-14.76923L348.238769 784.541538a9.964308 9.964308 0 0 1 13.272616-0.708923 350.404923 350.404923 0 0 0 218.387692 76.169847c161.831385 0 298.535385-109.961846 340.283077-259.465847a9.924923 9.924923 0 0 1 2.481231-4.332307z m-665.324307-166.203077l-154.939077 154.545231a10.121846 10.121846 0 0 1-17.211077-6.065231 518.774154 518.774154 0 0 1-3.111385-56.75323C82.116923 234.850462 315.352615 2.284308 603.057231 2.284308c127.960615 0 245.011692 46.08 335.675077 122.407384 4.489846 3.741538 4.726154 10.633846 0.551384 14.769231l-102.596923 102.281846a10.082462 10.082462 0 0 1-13.390769 0.708923 355.406769 355.406769 0 0 0-220.238769-76.169846c-163.170462 0-301.056 109.961846-343.158154 259.465846a9.924923 9.924923 0 0 1-2.520615 4.332308z m229.927384 244.578462c-8.270769-1.378462-11.460923-11.067077-5.553231-16.738462L1160.743385 6.537846c6.498462-6.222769 17.644308-1.811692 17.644307 7.010462v229.533538c0 2.599385-1.102769 5.12-3.032615 6.971077l-474.978462 455.601231a10.633846 10.633846 0 0 1-9.058461 2.756923l-204.051692-33.792z m211.337846-323.032615c8.310154 1.339077 11.579077 11.027692 5.592616 16.738461L17.880615 1019.667692c-6.577231 6.222769-17.801846 1.811692-17.801846-7.010461v-229.533539c0-2.599385 1.102769-5.12 3.072-7.010461L483.249231 320.590769a10.791385 10.791385 0 0 1 9.097846-2.756923l206.296615 33.792z" p-id="9179"></path></svg>